<svg width="450" height="94" viewBox="0 0 450 94" fill="none" xmlns="http://www.w3.org/2000/svg">
<path d="M26 73C25.5733 73.16 24.9067 73.4533 24 73.88C23.0933 74.3067 22 74.68 20.72 75C19.44 75.32 18.0533 75.48 16.56 75.48C15.0133 75.48 13.5467 75.1867 12.16 74.6C10.8267 74.0133 9.76 73.1333 8.96 71.96C8.16 70.7333 7.76 69.24 7.76 67.48V37.64H2V33.32H7.76V19.24H13.2V33.32H22.8V37.64H13.2V65.96C13.3067 67.4533 13.84 68.5733 14.8 69.32C15.8133 70.0667 16.96 70.44 18.24 70.44C19.7333 70.44 21.0933 70.2 22.32 69.72C23.5467 69.1867 24.2933 68.8133 24.56 68.6L26 73ZM50.0938 75.8C47.1071 75.8 44.3338 75.24 41.7738 74.12C39.2138 72.9467 37.0004 71.3733 35.1338 69.4C33.2671 67.3733 31.8004 65.0533 30.7338 62.44C29.7204 59.8267 29.2138 57.0267 29.2138 54.04C29.2138 50.1467 30.0938 46.5733 31.8538 43.32C33.6671 40.0667 36.1471 37.48 39.2938 35.56C42.4404 33.5867 46.0138 32.6 50.0138 32.6C54.1204 32.6 57.6938 33.5867 60.7338 35.56C63.8271 37.5333 66.2538 40.1467 68.0138 43.4C69.7738 46.6 70.6538 50.12 70.6538 53.96C70.6538 54.3867 70.6538 54.8133 70.6538 55.24C70.6538 55.6133 70.6271 55.9067 70.5738 56.12H34.8938C35.1604 59.1067 35.9871 61.7733 37.3738 64.12C38.8138 66.4133 40.6538 68.2533 42.8938 69.64C45.1871 70.9733 47.6671 71.64 50.3338 71.64C53.0538 71.64 55.6138 70.9467 58.0138 69.56C60.4671 68.1733 62.1738 66.36 63.1338 64.12L67.8538 65.4C67.0004 67.3733 65.6938 69.16 63.9338 70.76C62.1738 72.36 60.0938 73.6133 57.6938 74.52C55.3471 75.3733 52.8138 75.8 50.0938 75.8ZM34.7338 52.2H65.5338C65.3204 49.16 64.4938 46.4933 63.0538 44.2C61.6671 41.9067 59.8271 40.12 57.5338 38.84C55.2938 37.5067 52.8138 36.84 50.0938 36.84C47.3738 36.84 44.8938 37.5067 42.6538 38.84C40.4138 40.12 38.5738 41.9333 37.1338 44.28C35.7471 46.5733 34.9471 49.2133 34.7338 52.2ZM75.6869 63C75.6869 60.3867 76.4335 58.1467 77.9269 56.28C79.4202 54.36 81.4735 52.8933 84.0869 51.88C86.7535 50.8133 89.8202 50.28 93.2869 50.28C95.3135 50.28 97.4202 50.44 99.6069 50.76C101.794 51.08 103.74 51.56 105.447 52.2V48.68C105.447 45.16 104.407 42.36 102.327 40.28C100.247 38.2 97.3669 37.16 93.6869 37.16C91.4469 37.16 89.2335 37.5867 87.0469 38.44C84.9135 39.24 82.6735 40.44 80.3269 42.04L78.2469 38.2C80.9669 36.3333 83.6335 34.9467 86.2469 34.04C88.8602 33.08 91.5269 32.6 94.2469 32.6C99.3669 32.6 103.42 34.0667 106.407 37C109.394 39.9333 110.887 43.9867 110.887 49.16V68.44C110.887 69.1867 111.047 69.7467 111.367 70.12C111.687 70.44 112.194 70.6267 112.887 70.68V75C112.3 75.0533 111.794 75.1067 111.367 75.16C110.94 75.2133 110.62 75.2133 110.407 75.16C109.074 75.1067 108.06 74.68 107.367 73.88C106.674 73.08 106.3 72.2267 106.247 71.32L106.167 68.28C104.3 70.68 101.874 72.5467 98.8869 73.88C95.9002 75.16 92.8602 75.8 89.7669 75.8C87.1002 75.8 84.6735 75.24 82.4869 74.12C80.3535 72.9467 78.6735 71.4 77.4469 69.48C76.2735 67.5067 75.6869 65.3467 75.6869 63ZM103.607 66.2C104.194 65.4533 104.647 64.7333 104.967 64.04C105.287 63.3467 105.447 62.7333 105.447 62.2V56.12C103.634 55.4267 101.74 54.8933 99.7669 54.52C97.8469 54.1467 95.9002 53.96 93.9269 53.96C90.0335 53.96 86.8869 54.7333 84.4869 56.28C82.0869 57.8267 80.8869 59.9333 80.8869 62.6C80.8869 64.1467 81.2869 65.6133 82.0869 67C82.8869 68.3333 84.0602 69.4533 85.6069 70.36C87.1535 71.2133 88.9669 71.64 91.0469 71.64C93.6602 71.64 96.0869 71.1333 98.3269 70.12C100.62 69.1067 102.38 67.8 103.607 66.2ZM184.641 75H179.201V51.72C179.201 46.8667 178.427 43.2933 176.881 41C175.334 38.7067 173.041 37.56 170.001 37.56C166.854 37.56 164.027 38.68 161.521 40.92C159.067 43.16 157.334 46.04 156.321 49.56V75H150.881V51.72C150.881 46.8133 150.134 43.24 148.641 41C147.147 38.7067 144.854 37.56 141.761 37.56C138.667 37.56 135.867 38.6533 133.361 40.84C130.854 43.0267 129.094 45.9067 128.081 49.48V75H122.641V33.32H127.601V42.76C129.361 39.5067 131.601 37 134.321 35.24C137.094 33.48 140.161 32.6 143.521 32.6C146.987 32.6 149.787 33.5867 151.921 35.56C154.054 37.5333 155.361 40.12 155.841 43.32C157.761 39.8 160.054 37.1333 162.721 35.32C165.441 33.5067 168.507 32.6 171.921 32.6C174.267 32.6 176.241 33.0267 177.841 33.88C179.494 34.7333 180.801 35.96 181.761 37.56C182.774 39.1067 183.494 41 183.921 43.24C184.401 45.4267 184.641 47.88 184.641 50.6V75ZM247.777 33.32H253.137L235.217 75H230.497L221.777 54.28L213.137 75H208.417L190.497 33.32H195.777L210.977 69.4L218.657 50.6L211.617 33.4H216.497L221.777 46.92L227.137 33.4H231.937L224.977 50.6L232.657 69.4L247.777 33.32ZM276.969 75.8C273.982 75.8 271.209 75.24 268.649 74.12C266.089 72.9467 263.875 71.3733 262.009 69.4C260.142 67.3733 258.675 65.0533 257.609 62.44C256.595 59.8267 256.089 57.0267 256.089 54.04C256.089 50.1467 256.969 46.5733 258.729 43.32C260.542 40.0667 263.022 37.48 266.169 35.56C269.315 33.5867 272.889 32.6 276.889 32.6C280.995 32.6 284.569 33.5867 287.609 35.56C290.702 37.5333 293.129 40.1467 294.889 43.4C296.649 46.6 297.529 50.12 297.529 53.96C297.529 54.3867 297.529 54.8133 297.529 55.24C297.529 55.6133 297.502 55.9067 297.449 56.12H261.769C262.035 59.1067 262.862 61.7733 264.249 64.12C265.689 66.4133 267.529 68.2533 269.769 69.64C272.062 70.9733 274.542 71.64 277.209 71.64C279.929 71.64 282.489 70.9467 284.889 69.56C287.342 68.1733 289.049 66.36 290.009 64.12L294.729 65.4C293.875 67.3733 292.569 69.16 290.809 70.76C289.049 72.36 286.969 73.6133 284.569 74.52C282.222 75.3733 279.689 75.8 276.969 75.8ZM261.609 52.2H292.409C292.195 49.16 291.369 46.4933 289.929 44.2C288.542 41.9067 286.702 40.12 284.409 38.84C282.169 37.5067 279.689 36.84 276.969 36.84C274.249 36.84 271.769 37.5067 269.529 38.84C267.289 40.12 265.449 41.9333 264.009 44.28C262.622 46.5733 261.822 49.2133 261.609 52.2ZM302.562 63C302.562 60.3867 303.309 58.1467 304.802 56.28C306.295 54.36 308.349 52.8933 310.962 51.88C313.629 50.8133 316.695 50.28 320.162 50.28C322.189 50.28 324.295 50.44 326.482 50.76C328.669 51.08 330.615 51.56 332.322 52.2V48.68C332.322 45.16 331.282 42.36 329.202 40.28C327.122 38.2 324.242 37.16 320.562 37.16C318.322 37.16 316.109 37.5867 313.922 38.44C311.789 39.24 309.549 40.44 307.202 42.04L305.122 38.2C307.842 36.3333 310.509 34.9467 313.122 34.04C315.735 33.08 318.402 32.6 321.122 32.6C326.242 32.6 330.295 34.0667 333.282 37C336.269 39.9333 337.762 43.9867 337.762 49.16V68.44C337.762 69.1867 337.922 69.7467 338.242 70.12C338.562 70.44 339.069 70.6267 339.762 70.68V75C339.175 75.0533 338.669 75.1067 338.242 75.16C337.815 75.2133 337.495 75.2133 337.282 75.16C335.949 75.1067 334.935 74.68 334.242 73.88C333.549 73.08 333.175 72.2267 333.122 71.32L333.042 68.28C331.175 70.68 328.749 72.5467 325.762 73.88C322.775 75.16 319.735 75.8 316.642 75.8C313.975 75.8 311.549 75.24 309.362 74.12C307.229 72.9467 305.549 71.4 304.322 69.48C303.149 67.5067 302.562 65.3467 302.562 63ZM330.482 66.2C331.069 65.4533 331.522 64.7333 331.842 64.04C332.162 63.3467 332.322 62.7333 332.322 62.2V56.12C330.509 55.4267 328.615 54.8933 326.642 54.52C324.722 54.1467 322.775 53.96 320.802 53.96C316.909 53.96 313.762 54.7333 311.362 56.28C308.962 57.8267 307.762 59.9333 307.762 62.6C307.762 64.1467 308.162 65.6133 308.962 67C309.762 68.3333 310.935 69.4533 312.482 70.36C314.029 71.2133 315.842 71.64 317.922 71.64C320.535 71.64 322.962 71.1333 325.202 70.12C327.495 69.1067 329.255 67.8 330.482 66.2ZM360.666 75L343.786 33.32H349.466L363.706 69.56L378.026 33.32H383.386L366.506 75H360.666ZM407.516 75.8C404.529 75.8 401.756 75.24 399.196 74.12C396.636 72.9467 394.422 71.3733 392.556 69.4C390.689 67.3733 389.222 65.0533 388.156 62.44C387.142 59.8267 386.636 57.0267 386.636 54.04C386.636 50.1467 387.516 46.5733 389.276 43.32C391.089 40.0667 393.569 37.48 396.716 35.56C399.862 33.5867 403.436 32.6 407.436 32.6C411.542 32.6 415.116 33.5867 418.156 35.56C421.249 37.5333 423.676 40.1467 425.436 43.4C427.196 46.6 428.076 50.12 428.076 53.96C428.076 54.3867 428.076 54.8133 428.076 55.24C428.076 55.6133 428.049 55.9067 427.996 56.12H392.316C392.582 59.1067 393.409 61.7733 394.796 64.12C396.236 66.4133 398.076 68.2533 400.316 69.64C402.609 70.9733 405.089 71.64 407.756 71.64C410.476 71.64 413.036 70.9467 415.436 69.56C417.889 68.1733 419.596 66.36 420.556 64.12L425.276 65.4C424.422 67.3733 423.116 69.16 421.356 70.76C419.596 72.36 417.516 73.6133 415.116 74.52C412.769 75.3733 410.236 75.8 407.516 75.8ZM392.156 52.2H422.956C422.742 49.16 421.916 46.4933 420.476 44.2C419.089 41.9067 417.249 40.12 414.956 38.84C412.716 37.5067 410.236 36.84 407.516 36.84C404.796 36.84 402.316 37.5067 400.076 38.84C397.836 40.12 395.996 41.9333 394.556 44.28C393.169 46.5733 392.369 49.2133 392.156 52.2Z" fill="black"/>
<path d="M434.424 30V18.64H439.224C439.715 18.64 440.163 18.7413 440.568 18.944C440.973 19.1467 441.325 19.424 441.624 19.776C441.933 20.1173 442.168 20.5013 442.328 20.928C442.499 21.344 442.584 21.7707 442.584 22.208C442.584 22.752 442.477 23.264 442.264 23.744C442.061 24.224 441.768 24.6293 441.384 24.96C441.011 25.2907 440.568 25.5093 440.056 25.616L442.84 30H441.576L438.904 25.808H435.544V30H434.424ZM435.544 24.816H439.256C439.704 24.816 440.093 24.6933 440.424 24.448C440.755 24.2027 441.011 23.8827 441.192 23.488C441.373 23.0827 441.464 22.656 441.464 22.208C441.464 21.7493 441.357 21.328 441.144 20.944C440.941 20.5493 440.664 20.2347 440.312 20C439.971 19.7547 439.587 19.632 439.16 19.632H435.544V24.816Z" fill="black"/>
<circle cx="438" cy="25" r="11.5" stroke="black"/>
</svg>
